<?xml version="1.0" encoding="utf-8"?>
<!-- Generator: Adobe Illustrator 22.1.0, SVG Export Plug-In . SVG Version: 6.00 Build 0)  -->
<svg version="1.1" id="Layer_1" xmlns="http://www.w3.org/2000/svg" xmlns:xlink="http://www.w3.org/1999/xlink" x="0px" y="0px"
	 viewBox="0 0 58.8 68.9" style="enable-background:new 0 0 58.8 68.9;" xml:space="preserve">
<style type="text/css">
	.st0{fill:#3E8694;}
	.st1{fill:#75A185;}
	.st2{fill:#022F40;}
	.st3{fill:#FFFFFF;}
</style>
<title>Asset 5</title>
<g>
	<polygon class="st0" points="29.7,0 58.5,0 58.5,58.5 0,58.5 0,29.7 	"/>
	<polygon class="st1" points="0,0 24.9,0 0,24.9 	"/>
	<polygon class="st2" points="0.1,62.5 1.9,62.5 3.3,66.9 4.8,62.5 6.6,62.5 6.6,68.9 5.5,68.9 5.5,64.4 5.4,64.4 3.9,68.9 
		2.8,68.9 1.3,64.4 1.3,64.4 1.3,68.9 0.1,68.9 	"/>
	<path class="st2" d="M7.9,68.9l2.9-6.3h1.4l2.8,6.3h-1.3L13,67.5H9.8l-0.7,1.4L7.9,68.9z M11.5,63.6L11.5,63.6l-1.1,2.5h2.1
		L11.5,63.6L11.5,63.6z"/>
	<path class="st2" d="M19.7,66.5l1.6,2.3h-1.6l-1.6-2.3h-0.7v2.3h-1.4v-6.3h3c0.3,0,0.7,0.1,1,0.2c0.3,0.1,0.5,0.3,0.7,0.5
		c0.2,0.2,0.3,0.4,0.4,0.7c0.1,0.3,0.1,0.5,0.1,0.8c0,0.2,0,0.4-0.1,0.6c-0.1,0.2-0.2,0.4-0.4,0.6c-0.1,0.2-0.3,0.3-0.5,0.5
		C20.1,66.4,19.9,66.5,19.7,66.5L19.7,66.5z M18.6,63.6L18.6,63.6h-1.1v1.9h1.1h0.5c0.1,0,0.3-0.1,0.4-0.1c0.1-0.1,0.2-0.2,0.3-0.3
		c0.1-0.2,0.1-0.3,0.1-0.5c0-0.2,0-0.3-0.1-0.5c-0.1-0.1-0.1-0.2-0.3-0.3c-0.1-0.1-0.3-0.1-0.4-0.1L18.6,63.6L18.6,63.6z"/>
	<polygon class="st2" points="28.6,68.9 26.7,68.9 24.3,66.5 24.3,68.9 22.9,68.9 22.9,62.5 24.3,62.5 24.3,64.9 26.7,62.5 
		28.5,62.5 25.2,65.6 	"/>
	<polygon class="st2" points="31.2,66.3 31.2,67.7 34.8,67.7 34.8,68.9 29.9,68.9 29.9,62.5 34.5,62.5 34.5,63.7 31.2,63.7 
		31.2,65.1 34.1,65.1 34.1,66.3 	"/>
	<polygon class="st2" points="37.9,63.7 35.9,63.7 35.9,62.6 41.3,62.6 41.3,63.7 39.3,63.7 39.3,68.9 37.9,68.9 	"/>
	<rect x="42.6" y="62.5" class="st2" width="1.4" height="6.3"/>
	<polygon class="st2" points="46.7,64.2 46.7,68.9 45.6,68.9 45.6,62.5 47.2,62.5 50,66.5 50,62.5 51.2,62.5 51.2,68.9 50,68.9 	"/>
	<path class="st2" d="M58.8,65.7c0,0.1,0,0.2,0,0.3c0,0.1,0,0.3,0,0.5c0,0.1-0.1,0.3-0.1,0.5c0,0.1-0.1,0.3-0.2,0.3
		c-0.3,0.5-0.7,0.9-1.2,1.2c-0.3,0.1-0.5,0.3-0.8,0.3c-0.3,0.1-0.6,0.1-0.9,0.1c-0.4,0-0.9-0.1-1.2-0.3c-0.8-0.3-1.4-1-1.7-1.7
		c-0.3-0.8-0.3-1.7,0-2.5c0.3-0.8,0.9-1.4,1.7-1.7c0.7-0.3,1.4-0.3,2.2-0.1c0.3,0.1,0.5,0.2,0.8,0.3c0.5,0.3,0.9,0.7,1.2,1.2
		l-0.3,0.2l-0.3,0.1l-0.3,0.1l-0.4,0.2c-0.2-0.3-0.5-0.5-0.8-0.6c-0.3-0.2-0.6-0.3-0.9-0.3c-0.3,0-0.5,0.1-0.8,0.1
		c-0.5,0.2-0.8,0.6-1,1c-0.2,0.5-0.2,1,0,1.5c0.1,0.2,0.2,0.4,0.4,0.6c0.2,0.2,0.4,0.3,0.6,0.4c0.2,0.1,0.5,0.1,0.7,0.1
		c0.3,0,0.7-0.1,1-0.3c0.3-0.2,0.5-0.4,0.7-0.7h-1.6v-1L58.8,65.7L58.8,65.7z"/>
	<path class="st3" d="M5.7,46.8h3.1v-5.6h5.6v5.6h3.1V33h-3.1v5.5H8.8V33H5.7V46.8z M24.5,43.4l-2.4-7.2h-3.2l4.1,10.7
		c-0.3,0.5-0.5,0.7-1,0.7c-0.4,0-0.9-0.2-1.3-0.4l-1,2.2c0.8,0.5,1.6,0.7,2.7,0.7c1.8,0,2.7-0.8,3.5-3l4.1-10.9h-3.1L24.5,43.4z
		 M31.1,50h3v-4.6c0.7,0.9,1.7,1.6,3.3,1.6c2.5,0,4.8-2,4.8-5.5v0c0-3.5-2.4-5.5-4.8-5.5c-1.6,0-2.6,0.7-3.3,1.7v-1.5h-3V50z
		 M36.7,44.5c-1.4,0-2.6-1.2-2.6-2.9v0c0-1.8,1.2-2.9,2.6-2.9c1.4,0,2.6,1.2,2.6,2.9v0C39.3,43.3,38.1,44.5,36.7,44.5L36.7,44.5z
		 M49,47.1c1.9,0,3.3-0.7,4.3-2l-1.7-1.5c-0.9,0.8-1.6,1.1-2.6,1.1c-1.4,0-2.3-0.7-2.6-2.1h7.4c0-0.3,0-0.6,0-0.8
		c0-3-1.6-5.8-5.2-5.8c-3.1,0-5.2,2.5-5.2,5.5v0.1C43.4,44.8,45.8,47.1,49,47.1L49,47.1z M46.4,40.7c0.2-1.4,1-2.2,2.3-2.2
		c1.3,0,2.1,0.9,2.2,2.2H46.4z"/>
</g>
</svg>
