<?xml version="1.0" encoding="utf-8"?>
<!-- Generator: Adobe Illustrator 22.1.0, SVG Export Plug-In . SVG Version: 6.00 Build 0)  -->
<svg version="1.1" id="Layer_1" xmlns="http://www.w3.org/2000/svg" xmlns:xlink="http://www.w3.org/1999/xlink" x="0px" y="0px"
	 viewBox="0 0 641.3 124.3" style="enable-background:new 0 0 641.3 124.3;" xml:space="preserve">
<style type="text/css">
	.st0{fill:#106330;}
	.st1{fill:#6E6E6E;}
	.st2{fill:#BD9A59;stroke:#BD9A59;stroke-width:0.1984;stroke-linecap:round;stroke-linejoin:round;stroke-miterlimit:10;}
</style>
<title>Asset 1</title>
<g>
	<path class="st0" d="M11.9,66.3c2.6-1.2,7.9-0.7,7.9-3.9c0-3.5-5.1-4-8.5-4.3c-2.6-0.2-5.5,0.9-5.6,3.9
		C5.6,65.3,8.8,65.8,11.9,66.3L11.9,66.3z M66.2,11c0-2.2-0.9-4-2.8-5.1c-1.3-0.7-2.5-0.5-3.4,0.6c-3.2,3.8-1.8,7.7-0.2,11.6
		c0.5,1.1,1.2,3,2.5,2.2c2.8-1.8,3.2-5.2,3.9-8.3C66.2,11.7,66.2,11.3,66.2,11L66.2,11z M113.7,57.9c-4.4-0.1-10.7,3.2-9.8,4.5
		c2.3,3.1,6,3.9,9.7,3.6c2.4-0.2,5.4-0.8,5.2-3.7C118.7,59.2,115.9,58.2,113.7,57.9L113.7,57.9z M57.8,112.2
		c0.4,3.2,1.1,6.6,4.4,6.6c3.6,0,4.1-3.6,3.9-6.5c-0.2-3.3-1.2-8.2-4.2-8.2C58.7,104.2,58.6,109.2,57.8,112.2L57.8,112.2z
		 M21.8,37.7c-8.6,0.1-15.6,6.2-17,12.8c-0.4,2.1,0.3,2.7,2.2,2.4c5.6-0.9,10.3,1.1,14.4,4.7c2,1.8,3.7,1.8,5.7-0.2
		c3.1-3.1,6-6.6,9.9-8.8c1.4-0.8,1.4-2.2,0.1-3.1C31.8,41.7,26.6,37.6,21.8,37.7L21.8,37.7z M19.8,86.4c6.6,0.1,11.7-3.6,16.8-7.1
		c2-1.4,1.2-2.8-0.3-4.2c-3.2-2.8-6.4-5.7-9.5-8.6c-1.5-1.4-2.8-2-4.5-0.4C17.9,70,12.9,71.9,7,71.5c-2.1-0.1-2.3,0.9-1.9,2.7
		C6.5,80.5,13.4,86.3,19.8,86.4L19.8,86.4z M37.8,102.4c-0.1,8.1,5,14.7,11.7,16.4c1.8,0.5,3.5,0.5,3.2-1.9
		c-0.6-5.9,2-10.5,5.4-14.9c1.3-1.7,1.2-3.1-0.4-4.6c-3.2-3.1-6.3-6.3-8.8-10c-0.9-1.4-2.2-2.1-3.5-0.5
		C41.5,92,38.1,97.1,37.8,102.4L37.8,102.4z M37.7,20c0.2,6.7,3.8,12,7.8,17c1.3,1.6,2.5,1.1,3.4-0.4c2.1-3.6,5.2-6.4,8.1-9.3
		c2.1-2,2.4-3.8,0.6-6.2c-3.1-4.1-5.8-8.4-5-13.9C53,5,51.8,4.6,49.7,5.2C43.2,6.8,37.7,13.5,37.7,20L37.7,20z M86.4,103.1
		c-0.3-5.4-3.4-10.8-7.5-15.9c-1.2-1.4-2.4-1.5-3.5,0.1C73.1,91,69.9,93.9,67,97c-2,2.1-2.1,3.8-0.3,6.2c3.2,4.1,5.5,8.5,4.8,14
		c-0.2,2,0.9,2.4,2.7,2C80.3,117.9,86.3,110.7,86.4,103.1L86.4,103.1z M102.4,86.4c8.2,0,14.9-5.5,16.7-12c0.6-2.1,0-3.2-2.2-2.9
		c-5.7,0.7-10.3-1.7-14.4-5c-2.3-1.9-3.8-1.3-5.7,0.5c-3.1,3.1-6,6.5-9.9,8.8c-1.5,0.9-1.6,1.8-0.2,2.9
		C92,82.5,97.3,86.2,102.4,86.4L102.4,86.4z M115.2,52.9c1.2-1,5.1,2.2,3.9-2.7c-2.3-9.6-11.8-14.7-21.1-11.4
		c-3.6,1.3-6.8,3.4-9.9,5.7c-2.2,1.6-2.5,2.9-0.1,4.8c3,2.4,6.2,4.6,8.6,7.5c2.4,2.7,4.2,2.6,6.8,0.6
		C106.7,54.6,110.3,52.2,115.2,52.9L115.2,52.9z M71.5,8.8c0.2,3.1-1,5.7-2.2,8.3c-1.1,2.6-4.5,4.4-4.2,7.3c0.4,3.1,3.7,4.6,5.6,6.8
		c7.2,8.5,8,8.4,13.1-1.7c0.7-1.4,1.2-3,1.6-4.5c2.3-8.7-1.2-15.8-9.5-19.2C72.7,4.4,70.6,4.4,71.5,8.8L71.5,8.8z M97.1,62.1
		c-0.3-0.5-0.5-1.2-1-1.6c-5.3-4.7-10.2-10.2-17.8-11.2c-2-0.3-3.3-0.9-3.5-3.1c-0.6-7.6-6-12.4-10.5-17.7c-1.1-1.4-2.5-2.2-4-0.5
		c-4.5,5.1-9.9,9.7-10.6,17.1c-0.3,2.8-1.6,4.2-4.5,4.6c-7.1,0.9-11.8,5.9-16.8,10.3c-1.4,1.2-1.9,2.6-0.2,4
		c5.4,4.5,10.3,10.1,18,10.9c1.9,0.2,2.9,0.9,3.1,2.9c0.5,7.8,6,12.7,10.7,18c1,1.2,2.2,1.9,3.7,0.5c5-4.9,9.9-10,11.1-17.3
		c0.5-3.1,1.8-3.8,4.5-4.2c7.3-1.2,12.3-6.3,17.2-11.3C96.7,63.1,96.8,62.6,97.1,62.1L97.1,62.1z M38.3,38.6
		c-1.8-4.5-3.9-7.6-4.8-11.2c-2.2-7.9,0.3-14.2,6-19.4C52.7-4.1,76.6-2.2,87.9,11.7c5.2,6.5,3.9,13.3,1.3,20.3
		c-0.6,1.6-2.2,2.8-1.9,4.8c1.8,0.6,3-0.7,4.3-1.4c9.6-5.1,19-3.1,25.4,5.6c9.1,12.4,9.4,29.1,0.8,41.6c-6.4,9.2-15.4,11.5-25.5,6.5
		c-1.5-0.8-3.1-1.5-4.5-2.2c-1.1,1.6-0.2,2.5,0.3,3.5c6.5,12.9,4.1,21.6-8,29.1c-12.5,7.8-30.5,6.1-41.3-4
		C32.8,110,31,102.6,33.9,95c0.9-2.5,2.1-4.8,3.3-7.3c-2.3-0.7-3.6,0.8-5.1,1.5c-9.9,4.9-19.8,2.2-25.9-6.9C-2.3,69.4-2,52.7,6.8,41
		c6.7-8.8,16-10.8,25.8-5.6C34.1,36.3,35.6,37.1,38.3,38.6L38.3,38.6z"/>
	<path class="st1" d="M156,43.5h31.7v7.3h-11.6v30.7h-8.6V50.8H156V43.5z M192.4,43.5h8.6v15.8h17.2V43.5h8.6v38h-8.6v-15h-17.2v15
		h-8.6V43.5z M235,43.5h28.9v7.1h-20.3v8.2h18.3v7.1h-18.3v8.4h20.9v7.1H235V43.5z M309.4,62.3h7.4V77c-2,1.5-4.5,2.7-7.3,3.6
		c-2.8,0.9-5.5,1.4-8.1,1.4c-3.8,0-7.2-0.9-10.3-2.6c-3.1-1.7-5.5-4.1-7.3-7.1c-1.8-3-2.6-6.3-2.6-10c0-3.7,0.9-7,2.7-9.9
		c1.8-3,4.3-5.3,7.5-7c3.2-1.7,6.7-2.6,10.5-2.6c2.8,0,5.6,0.5,8.3,1.5c2.7,1,5,2.4,6.9,4.1l-4.8,6.1c-1.4-1.3-3-2.4-4.9-3.1
		c-1.8-0.7-3.7-1.1-5.5-1.1c-2.2,0-4.2,0.5-6,1.6c-1.8,1-3.3,2.5-4.3,4.3c-1,1.8-1.6,3.9-1.6,6.1c0,2.2,0.5,4.3,1.6,6.2
		c1,1.8,2.5,3.3,4.3,4.4c1.8,1,3.8,1.6,6,1.6c1.1,0,2.3-0.2,3.6-0.6c1.3-0.4,2.6-0.9,3.8-1.6V62.3z M347.6,81.4l-6-10.9h-0.8h-7.9
		v10.9h-8.6v-38h16.5c5,0,8.8,1.2,11.5,3.5c2.7,2.3,4.1,5.5,4.1,9.7c0,2.9-0.6,5.4-1.8,7.5c-1.2,2.1-3,3.7-5.3,4.7l8.1,12.5H347.6z
		 M332.9,63.4h7.9c2.4,0,4.2-0.5,5.5-1.6c1.3-1.1,1.9-2.7,1.9-4.8c0-2.1-0.6-3.7-1.9-4.8c-1.3-1-3.1-1.6-5.5-1.6h-7.9V63.4z
		 M363.5,43.5h28.9v7.1h-20.4v8.2h18.3v7.1h-18.3v8.4h20.9v7.1h-29.5V43.5z M399.8,43.5h28.9v7.1h-20.3v8.2h18.3v7.1h-18.3v8.4h20.9
		v7.1h-29.5V43.5z M462.2,43.5h8.1v38h-7.8L444.2,57v24.4H436v-38h7.8L462.2,68V43.5z M525,43.5h8.8l-12.9,38h-8.8l-8-27.4
		l-8.1,27.4h-8.8l-12.8-38h9.2l8.2,28.9l8.2-28.9h8.4l8.3,28.9L525,43.5z M563.1,81.4l-3-7.4h-17.6l-3,7.4h-8.8l16.5-38h8.8l16.2,38
		H563.1z M545.4,67.2h12l-6-14.7L545.4,67.2z M576.3,43.5h8.6V74h16.3v7.5h-24.8V43.5z M641.3,81.4h-10.2l-10.9-15.6l-5.4,6v9.6
		h-8.6v-38h8.6v17.7l15.7-17.7h10l-14.3,15.8L641.3,81.4z"/>
	<path class="st2" d="M48.7,62.3c0-4.7,1.2-8.2,3.5-10.6c2.4-2.4,5.7-3.6,10.1-3.6c1.4,0,2.6,0.1,3.6,0.4c1,0.3,2.1,0.6,3.2,1
		c1.2,0.4,2,0.6,2.6,0.6c-0.1,0.6-0.2,1.7-0.2,3.1c0,0.4,0,1,0.1,1.7c0.1,0.5,0.1,0.9,0.1,1.1H70c0-0.1,0.1-0.4,0.1-0.7
		c0-1.9-0.7-3.4-2-4.5c-1.3-1.1-3.3-1.6-5.9-1.6c-2.6,0-4.8,1.1-6.4,3.3c-1.6,2.2-2.4,5.4-2.4,9.7c0,8.4,3,12.6,9,12.6
		c1.4,0,2.5-0.1,3.3-0.4c0.9-0.3,1.7-0.9,2.5-1.7v-7.3c0-0.7-0.3-1-0.9-1l-2.7,0.1v-1.3h10.5v1.3l-1.8-0.1c-0.3,0-0.5,0.1-0.7,0.3
		c-0.1,0.2-0.2,0.4-0.2,0.7v8.6c-0.1,0-0.3-0.1-0.6-0.1c-0.6,0-1.5,0.3-2.8,0.7c-1.3,0.5-2.5,0.8-3.5,1c-1,0.2-2.1,0.3-3.4,0.3
		c-4.3,0-7.5-1.2-9.9-3.5C49.9,70.3,48.7,66.8,48.7,62.3L48.7,62.3z"/>
</g>
</svg>
