<?xml version="1.0" encoding="utf-8"?>
<!-- Generator: Adobe Illustrator 22.1.0, SVG Export Plug-In . SVG Version: 6.00 Build 0)  -->
<svg version="1.1" id="Layer_1" xmlns="http://www.w3.org/2000/svg" xmlns:xlink="http://www.w3.org/1999/xlink" x="0px" y="0px"
	 viewBox="0 0 210.1 54" style="enable-background:new 0 0 210.1 54;" xml:space="preserve">
<style type="text/css">
	.st0{fill:#17184D;}
</style>
<title>Asset 4</title>
<g>
	<path class="st0" d="M31,50.4v0.3h0.2c0.3,0,0.5,0,0.6,0.1c0.1,0.1,0.3,0.1,0.3,0.3c0.1,0.1,0.1,0.4,0.1,0.7V52
		c0,0.3-0.1,0.5-0.1,0.7c-0.1,0.2-0.3,0.4-0.5,0.5s-0.4,0.2-0.7,0.3c-0.3,0.1-0.5,0.1-0.8,0.1c-0.2,0-0.5-0.1-0.7-0.1
		c-0.2-0.1-0.5-0.2-0.7-0.3c-0.2-0.1-0.4-0.3-0.5-0.4c-0.3-0.3-0.5-0.8-0.7-1.3c-0.2-0.5-0.2-1.1-0.2-1.8c0-0.7,0.1-1.2,0.2-1.7
		c0.1-0.5,0.3-0.9,0.5-1.2c0.2-0.2,0.4-0.4,0.6-0.5c0.2-0.1,0.5-0.3,0.7-0.3c0.3-0.1,0.5-0.1,0.8-0.1c0.5,0,0.9,0.1,1.3,0.3
		c0.4,0.2,0.7,0.5,1,0.9c0.3,0.4,0.4,0.9,0.5,1.4h0.3v-2.7H33c0,0.1,0,0.3-0.1,0.5c-0.1,0.1-0.1,0.3-0.2,0.4
		c-0.3-0.4-0.7-0.7-1.2-0.9c-0.4-0.2-0.9-0.3-1.5-0.3c-0.6,0-1.1,0.1-1.6,0.3c-0.5,0.2-0.9,0.5-1.2,0.9c-0.3,0.3-0.5,0.6-0.7,0.9
		c-0.2,0.3-0.3,0.7-0.5,1.1C26,49.2,26,49.5,26,49.9c0,0.6,0.1,1.1,0.3,1.6c0.2,0.5,0.5,0.9,0.8,1.3c0.4,0.4,0.8,0.7,1.3,0.9
		c0.5,0.2,1,0.3,1.6,0.3c0.2,0,0.3,0,0.5,0c0.1,0,0.3,0,0.4-0.1c0.1,0,0.3-0.1,0.5-0.1c0.2-0.1,0.3-0.1,0.5-0.2
		c0.2-0.1,0.5-0.1,0.7-0.2c0.2-0.1,0.4-0.1,0.5-0.1c0,0,0.1,0,0.1,0c0,0,0.1,0,0.1,0v-0.9c0-0.3,0-0.6,0-0.8c0-0.2,0-0.4,0.1-0.5
		c0-0.1,0.1-0.2,0.2-0.3c0.1-0.1,0.2-0.1,0.3-0.1c0.1,0,0.3,0,0.5,0h0.1v-0.3H31z M44.8,53.8v-0.3h-0.1c-0.2,0-0.4,0-0.6-0.1
		s-0.4-0.2-0.6-0.3c-0.2-0.1-0.4-0.3-0.6-0.5c-0.2-0.2-0.4-0.5-0.7-0.8c-0.3-0.4-0.5-0.7-0.8-1c-0.2-0.3-0.4-0.5-0.6-0.7
		c-0.2-0.2-0.3-0.3-0.5-0.4c0.5-0.1,0.9-0.2,1.2-0.4c0.3-0.2,0.6-0.4,0.8-0.7c0.2-0.3,0.3-0.6,0.3-1c0-0.3-0.1-0.6-0.2-0.9
		c-0.2-0.3-0.4-0.5-0.7-0.7c-0.3-0.2-0.6-0.3-1-0.4c-0.4-0.1-0.9-0.1-1.5-0.1c-0.1,0-0.2,0-0.3,0c-0.1,0-0.3,0-0.5,0s-0.3,0-0.5,0
		c-0.2,0-0.4,0-0.5,0l-1.2,0.1V46h0.1c0.2,0,0.4,0,0.5,0c0.1,0,0.3,0.1,0.3,0.1c0.1,0.1,0.1,0.1,0.2,0.3c0,0.1,0.1,0.3,0.1,0.5
		c0,0.2,0,0.5,0,0.8v4c0,0.3,0,0.6,0,0.8c0,0.2-0.1,0.4-0.1,0.5c0,0.1-0.1,0.2-0.2,0.3c-0.1,0.1-0.2,0.1-0.3,0.1c-0.1,0-0.3,0-0.5,0
		h-0.3v0.3h3.9v-0.3h-0.4c-0.2,0-0.3,0-0.5,0c-0.1,0-0.2-0.1-0.3-0.1c-0.1-0.1-0.1-0.2-0.1-0.3c-0.1-0.1-0.1-0.3-0.1-0.5
		s0-0.5,0-0.8v-1.8h0.3c0.1,0,0.2,0,0.3,0c0.1,0.1,0.2,0.1,0.3,0.3c0.1,0.1,0.3,0.3,0.5,0.5c0.2,0.3,0.4,0.6,0.7,1
		c0.3,0.3,0.5,0.7,0.7,0.9c0.2,0.3,0.4,0.5,0.6,0.7c0.2,0.2,0.3,0.4,0.5,0.5H44.8z M38.7,49.7v-3.7c0.1,0,0.2,0,0.3,0
		c0.1,0,0.2,0,0.2,0c0.3,0,0.6,0,0.9,0.1c0.2,0,0.4,0.1,0.6,0.2c0.3,0.1,0.5,0.3,0.6,0.6c0.1,0.3,0.2,0.6,0.2,1c0,0.4-0.1,0.8-0.2,1
		c-0.1,0.3-0.4,0.5-0.7,0.6c-0.3,0.1-0.7,0.2-1.2,0.2h-0.5L38.7,49.7z M50.1,45.6c-0.6,0-1.2,0.1-1.7,0.3c-0.5,0.2-1,0.5-1.4,0.9
		s-0.7,0.8-0.9,1.3c-0.2,0.5-0.3,1-0.3,1.6c0,0.7,0.1,1.2,0.3,1.8c0.2,0.5,0.5,1,0.9,1.3c0.4,0.4,0.8,0.7,1.4,0.9
		c0.5,0.2,1.2,0.3,1.8,0.3c0.7,0,1.2-0.1,1.8-0.3s1-0.5,1.4-0.9c0.4-0.4,0.7-0.8,0.9-1.3c0.2-0.5,0.3-1.1,0.3-1.7
		c0-0.4-0.1-0.8-0.1-1.2c-0.1-0.4-0.3-0.7-0.5-1c-0.2-0.3-0.4-0.6-0.7-0.9c-0.3-0.2-0.6-0.4-0.9-0.6c-0.3-0.1-0.7-0.3-1.1-0.4
		C50.9,45.6,50.5,45.6,50.1,45.6L50.1,45.6z M50.1,45.9c0.4,0,0.8,0.1,1.1,0.2c0.3,0.1,0.7,0.3,0.9,0.6c0.2,0.2,0.4,0.5,0.6,0.8
		c0.1,0.3,0.3,0.7,0.3,1.1c0.1,0.4,0.1,0.8,0.1,1.3c0,0.9-0.1,1.6-0.3,2.1c-0.3,0.6-0.6,1-1,1.3c-0.5,0.3-1,0.5-1.6,0.5
		c-0.5,0-0.9-0.1-1.2-0.2c-0.4-0.1-0.7-0.3-1-0.6c-0.2-0.2-0.3-0.5-0.5-0.7c-0.1-0.3-0.2-0.7-0.3-1.1c-0.1-0.4-0.1-0.8-0.1-1.3
		c0-0.4,0-0.8,0.1-1.2c0.1-0.3,0.2-0.7,0.3-1c0.1-0.3,0.3-0.5,0.4-0.7s0.4-0.4,0.6-0.5c0.2-0.1,0.5-0.3,0.8-0.3
		C49.5,45.9,49.8,45.9,50.1,45.9L50.1,45.9z M62.8,45.8V46h0.1c0.2,0,0.4,0.1,0.6,0.1c0.1,0.1,0.3,0.1,0.4,0.3
		c0.1,0.1,0.1,0.3,0.2,0.5s0,0.5,0,0.7v2.7c0,0.3,0,0.6,0,0.8c0,0.2,0,0.4-0.1,0.5c0,0.1-0.1,0.3-0.1,0.4c0,0.1-0.1,0.2-0.1,0.3
		c-0.1,0.3-0.3,0.5-0.6,0.6c-0.3,0.2-0.5,0.3-0.8,0.4c-0.3,0.1-0.7,0.1-1,0.1c-0.3,0-0.6,0-0.9-0.1c-0.3-0.1-0.5-0.2-0.7-0.3
		s-0.3-0.3-0.5-0.5c-0.1-0.1-0.1-0.2-0.1-0.3c0-0.1-0.1-0.2-0.1-0.3c0-0.1-0.1-0.2-0.1-0.4c0-0.1,0-0.3,0-0.6c0-0.2,0-0.5,0-0.8
		v-2.5c0-0.3,0-0.6,0-0.8s0-0.4,0.1-0.5c0-0.1,0.1-0.2,0.2-0.3c0.1-0.1,0.2-0.1,0.3-0.1c0.1,0,0.3,0,0.5,0h0.2v-0.3h-3.7V46h0.2
		c0.2,0,0.4,0,0.5,0c0.1,0,0.3,0.1,0.3,0.1c0.1,0.1,0.1,0.1,0.2,0.3c0.1,0.1,0.1,0.3,0.1,0.5c0,0.2,0,0.5,0,0.8v2.5
		c0,0.3,0,0.4,0,0.6c0,0.1,0,0.2,0,0.3c0,0.1,0,0.1,0,0.1s0,0.1,0,0.1c0,0.2,0,0.4,0.1,0.6c0,0.2,0.1,0.3,0.1,0.5
		c0.1,0.1,0.1,0.3,0.2,0.4c0.2,0.3,0.4,0.5,0.7,0.7c0.3,0.2,0.6,0.3,1,0.4c0.3,0.1,0.7,0.1,1.2,0.1c0.5,0,0.9-0.1,1.2-0.2
		c0.4-0.1,0.7-0.2,1-0.4s0.5-0.4,0.7-0.7c0.1-0.1,0.1-0.2,0.2-0.3c0-0.1,0.1-0.2,0.1-0.3c0-0.1,0-0.2,0.1-0.4c0-0.1,0-0.3,0-0.5
		s0-0.5,0-0.7v-2.7c0-0.3,0-0.5,0-0.8c0-0.2,0.1-0.4,0.1-0.5c0.1-0.1,0.2-0.2,0.3-0.3c0.1-0.1,0.3-0.1,0.6-0.2h0.1v-0.3H62.8z
		 M69.7,50h0.9c0.4,0,0.7,0,0.9-0.1c0.3,0,0.5-0.1,0.7-0.1c0.2-0.1,0.3-0.1,0.5-0.2c0.2-0.1,0.4-0.3,0.5-0.5
		c0.1-0.2,0.3-0.4,0.3-0.6c0.1-0.2,0.1-0.5,0.1-0.7c0-0.4-0.1-0.7-0.2-1c-0.2-0.3-0.4-0.5-0.7-0.7c-0.2-0.1-0.4-0.2-0.6-0.3
		c-0.2-0.1-0.5-0.1-0.8-0.1s-0.7,0-1.1,0c-0.1,0-0.2,0-0.3,0s-0.2,0-0.3,0c-0.1,0-0.2,0-0.3,0c-0.1,0-0.2,0-0.4,0
		c-0.2,0-0.4,0-0.6,0l-1,0.1V46h0.1c0.2,0,0.4,0,0.5,0c0.1,0,0.3,0.1,0.3,0.1c0.1,0.1,0.1,0.1,0.2,0.3c0,0.1,0.1,0.3,0.1,0.5
		c0,0.2,0,0.5,0,0.8v4c0,0.3,0,0.6,0,0.8c0,0.2,0,0.4-0.1,0.5c0,0.1-0.1,0.2-0.2,0.3c-0.1,0.1-0.2,0.1-0.3,0.1c-0.1,0-0.3,0-0.5,0
		h-0.2v0.3H71v-0.3h-0.3c-0.2,0-0.3,0-0.5,0c-0.1,0-0.2-0.1-0.3-0.1c-0.1-0.1-0.1-0.2-0.1-0.3c-0.1-0.1-0.1-0.3-0.1-0.5s0-0.5,0-0.8
		V50z M69.7,49.7V46c0.1,0,0.1,0,0.2,0s0.1,0,0.2,0s0.1,0,0.2,0c0.3,0,0.5,0,0.7,0c0.2,0,0.3,0.1,0.5,0.1c0.1,0.1,0.3,0.1,0.4,0.2
		c0.1,0.1,0.2,0.2,0.3,0.4c0.1,0.2,0.2,0.3,0.2,0.5s0.1,0.4,0.1,0.7c0,0.3-0.1,0.7-0.2,0.9c-0.1,0.3-0.3,0.5-0.5,0.6
		c-0.1,0.1-0.2,0.1-0.4,0.2c-0.1,0-0.3,0.1-0.5,0.1c-0.2,0-0.4,0-0.7,0H69.7z M84.2,45.6c-0.6,0-1.2,0.1-1.7,0.3
		c-0.5,0.2-1,0.5-1.4,0.9s-0.7,0.8-0.9,1.3c-0.2,0.5-0.3,1-0.3,1.6c0,0.7,0.1,1.2,0.3,1.8c0.2,0.5,0.5,1,0.9,1.3
		c0.4,0.4,0.8,0.7,1.4,0.9s1.2,0.3,1.8,0.3c0.7,0,1.2-0.1,1.8-0.3s1-0.5,1.4-0.9c0.4-0.4,0.7-0.8,0.9-1.3c0.2-0.5,0.3-1.1,0.3-1.7
		c0-0.4-0.1-0.8-0.1-1.2c-0.1-0.4-0.3-0.7-0.5-1c-0.2-0.3-0.4-0.6-0.7-0.9c-0.3-0.2-0.6-0.4-0.9-0.6c-0.3-0.1-0.7-0.3-1.1-0.4
		C85,45.6,84.6,45.6,84.2,45.6L84.2,45.6z M84.3,45.9c0.4,0,0.8,0.1,1.1,0.2s0.7,0.3,0.9,0.6c0.2,0.2,0.4,0.5,0.6,0.8
		c0.1,0.3,0.3,0.7,0.3,1.1c0.1,0.4,0.1,0.8,0.1,1.3c0,0.9-0.1,1.6-0.3,2.1c-0.3,0.6-0.6,1-1,1.3c-0.5,0.3-1,0.5-1.6,0.5
		c-0.5,0-0.9-0.1-1.2-0.2c-0.4-0.1-0.7-0.3-1-0.6c-0.2-0.2-0.3-0.5-0.5-0.7c-0.1-0.3-0.3-0.7-0.3-1.1c-0.1-0.4-0.1-0.8-0.1-1.3
		c0-0.4,0-0.8,0.1-1.2c0.1-0.3,0.1-0.7,0.3-1c0.1-0.3,0.3-0.5,0.4-0.7c0.2-0.2,0.4-0.4,0.6-0.5c0.2-0.1,0.5-0.3,0.8-0.3
		C83.7,45.9,84,45.9,84.3,45.9L84.3,45.9z M97.1,45.8h-6.2V46H91c0.2,0,0.4,0,0.5,0c0.1,0,0.2,0.1,0.3,0.1c0.1,0.1,0.1,0.1,0.2,0.3
		c0.1,0.1,0.1,0.3,0.1,0.5c0,0.2,0,0.5,0,0.8v3.9c0,0.3,0,0.6,0,0.9c0,0.2,0,0.4-0.1,0.5c0,0.1-0.1,0.2-0.2,0.3
		c-0.1,0.1-0.2,0.1-0.3,0.1c-0.1,0-0.3,0-0.5,0h-0.3v0.3h3.7v-0.3h-0.3c-0.2,0-0.3,0-0.5,0c-0.1,0-0.2-0.1-0.3-0.1
		c-0.1-0.1-0.1-0.2-0.2-0.3c-0.1-0.1-0.1-0.3-0.1-0.5c0-0.2,0-0.5,0-0.9v-2H94c0.3,0,0.5,0,0.7,0.1c0.2,0.1,0.3,0.2,0.4,0.4
		c0.1,0.2,0.1,0.4,0.1,0.8v0.1h0.3v-2.9h-0.3v0.1c0,0.3,0,0.5-0.1,0.7c-0.1,0.2-0.2,0.3-0.4,0.4c-0.2,0.1-0.4,0.1-0.7,0.1h-0.8V46
		h1.6c0.4,0,0.8,0,1,0.1c0.3,0.1,0.5,0.3,0.7,0.6c0.1,0.3,0.3,0.6,0.3,1.1h0.3L97.1,45.8z M110.4,50.8c0,0.3-0.1,0.5-0.2,0.7
		c-0.1,0.2-0.2,0.5-0.3,0.7c-0.1,0.2-0.2,0.4-0.4,0.5c-0.1,0.2-0.3,0.3-0.4,0.4c-0.3,0.2-0.5,0.3-0.8,0.4c-0.3,0.1-0.6,0.1-0.8,0.1
		c-0.4,0-0.8-0.1-1.2-0.3c-0.3-0.2-0.7-0.4-0.9-0.8c-0.3-0.3-0.5-0.7-0.6-1.2c-0.1-0.5-0.2-1-0.2-1.5c0-0.9,0.1-1.6,0.3-2.2
		c0.2-0.6,0.5-1,1-1.4c0.4-0.3,0.9-0.5,1.5-0.5c0.3,0,0.6,0.1,0.9,0.1c0.3,0.1,0.5,0.2,0.8,0.4c0.2,0.2,0.4,0.4,0.6,0.6
		c0.1,0.2,0.3,0.5,0.4,0.8c0.1,0.3,0.2,0.6,0.3,1h0.3l-0.1-3.1h-0.2c0,0.1-0.1,0.2-0.1,0.3c0,0.1-0.1,0.3-0.1,0.4
		c-0.1,0.1-0.1,0.2-0.2,0.3c-0.2-0.2-0.4-0.5-0.7-0.6c-0.3-0.2-0.6-0.3-0.9-0.4c-0.3-0.1-0.7-0.1-1-0.2c-0.6,0-1.1,0.1-1.6,0.3
		c-0.5,0.2-0.9,0.5-1.2,0.9c-0.3,0.4-0.6,0.9-0.8,1.4c-0.2,0.5-0.3,1.1-0.3,1.8c0,0.6,0.1,1.1,0.3,1.6c0.2,0.5,0.5,0.9,0.8,1.3
		c0.3,0.4,0.8,0.7,1.2,0.9c0.5,0.2,1,0.3,1.6,0.3c1.1,0,2-0.4,2.7-1.2c0.1,0.1,0.1,0.1,0.2,0.2c0.1,0.1,0.1,0.2,0.1,0.3
		c0.1,0.1,0.1,0.2,0.1,0.3h0.3v-2.8H110.4z M117.6,45.6c-0.6,0-1.2,0.1-1.8,0.3c-0.5,0.2-1,0.5-1.4,0.9s-0.7,0.8-0.9,1.3
		c-0.2,0.5-0.3,1-0.3,1.6c0,0.7,0.1,1.2,0.3,1.8c0.2,0.5,0.5,1,0.9,1.3c0.4,0.4,0.9,0.7,1.4,0.9s1.1,0.3,1.8,0.3
		c0.7,0,1.2-0.1,1.8-0.3c0.5-0.2,1-0.5,1.4-0.9c0.4-0.4,0.7-0.8,0.9-1.3c0.2-0.5,0.3-1.1,0.3-1.7c0-0.4-0.1-0.8-0.1-1.2
		c-0.1-0.4-0.3-0.7-0.5-1c-0.2-0.3-0.4-0.6-0.7-0.9c-0.3-0.2-0.6-0.4-0.9-0.6c-0.3-0.1-0.7-0.3-1.1-0.4
		C118.4,45.6,118,45.6,117.6,45.6L117.6,45.6z M117.6,45.9c0.4,0,0.8,0.1,1.1,0.2s0.7,0.3,0.9,0.6c0.2,0.2,0.4,0.5,0.5,0.8
		c0.2,0.3,0.3,0.7,0.3,1.1c0.1,0.4,0.1,0.8,0.1,1.3c0,0.9-0.1,1.6-0.4,2.1c-0.2,0.6-0.6,1-1,1.3c-0.5,0.3-1,0.5-1.6,0.5
		c-0.5,0-0.9-0.1-1.2-0.2c-0.3-0.1-0.7-0.3-0.9-0.6c-0.2-0.2-0.3-0.5-0.5-0.7c-0.1-0.3-0.2-0.7-0.3-1.1c-0.1-0.4-0.1-0.8-0.1-1.3
		c0-0.4,0-0.8,0.1-1.2c0.1-0.3,0.2-0.7,0.3-1c0.1-0.3,0.3-0.5,0.4-0.7s0.4-0.4,0.6-0.5c0.2-0.1,0.5-0.3,0.7-0.3
		C117,45.9,117.3,45.9,117.6,45.9L117.6,45.9z M129.5,52.4l-2.9-6.7h-2.5V46h0.2c0.2,0,0.4,0,0.5,0c0.1,0,0.3,0.1,0.3,0.1
		c0.1,0.1,0.1,0.1,0.2,0.3c0.1,0.1,0.1,0.3,0.1,0.5s0,0.5,0,0.8v3.5c0,0.4,0,0.8,0,1c0,0.3-0.1,0.5-0.2,0.7
		c-0.1,0.2-0.2,0.3-0.4,0.4c-0.2,0.1-0.4,0.1-0.7,0.2h-0.1v0.3h2.9v-0.3h-0.1c-0.2,0-0.5-0.1-0.6-0.2c-0.2-0.1-0.3-0.3-0.4-0.4
		c0-0.1-0.1-0.2-0.1-0.3c0-0.1-0.1-0.2-0.1-0.3c0-0.1,0-0.3,0-0.4s0-0.4,0-0.7v-4.7l3.2,7.3h0.3l3.2-7.3v5.2c0,0.3,0,0.6,0,0.8
		c0,0.2,0,0.4-0.1,0.5c0,0.1-0.1,0.2-0.2,0.3c-0.1,0.1-0.2,0.1-0.3,0.1c-0.1,0-0.3,0-0.5,0H131v0.3h3.9v-0.3h-0.4
		c-0.2,0-0.3,0-0.5,0c-0.1,0-0.3-0.1-0.3-0.1c-0.1-0.1-0.1-0.2-0.2-0.3c-0.1-0.1-0.1-0.3-0.1-0.5c0-0.2,0-0.5,0-0.8v-4
		c0-0.3,0-0.6,0-0.8c0-0.2,0-0.4,0.1-0.5c0-0.1,0.1-0.2,0.2-0.3c0.1-0.1,0.2-0.1,0.3-0.1c0.1,0,0.3,0,0.5,0h0.3v-0.3h-2.5
		L129.5,52.4z M139.2,50h0.9c0.4,0,0.7,0,1-0.1c0.3,0,0.5-0.1,0.7-0.1c0.2-0.1,0.4-0.1,0.5-0.2c0.2-0.1,0.4-0.3,0.5-0.5
		c0.2-0.2,0.3-0.4,0.3-0.6c0.1-0.2,0.1-0.5,0.1-0.7c0-0.4-0.1-0.7-0.2-1c-0.1-0.3-0.4-0.5-0.7-0.7c-0.2-0.1-0.4-0.2-0.6-0.3
		c-0.2-0.1-0.5-0.1-0.8-0.1s-0.7,0-1.1,0c-0.1,0-0.2,0-0.3,0c-0.1,0-0.2,0-0.3,0s-0.2,0-0.3,0s-0.3,0-0.4,0c-0.2,0-0.4,0-0.6,0
		l-1,0.1V46h0.1c0.2,0,0.4,0,0.5,0c0.1,0,0.2,0.1,0.3,0.1c0.1,0.1,0.1,0.1,0.2,0.3c0.1,0.1,0.1,0.3,0.1,0.5s0,0.5,0,0.8v4
		c0,0.3,0,0.6,0,0.8c0,0.2,0,0.4-0.1,0.5c0,0.1-0.1,0.2-0.2,0.3c-0.1,0.1-0.2,0.1-0.3,0.1c-0.1,0-0.3,0-0.5,0h-0.2v0.3h3.7v-0.3
		h-0.3c-0.2,0-0.4,0-0.5,0c-0.1,0-0.2-0.1-0.3-0.1c-0.1-0.1-0.1-0.2-0.2-0.3c0-0.1-0.1-0.3-0.1-0.5c0-0.2,0-0.5,0-0.8V50z
		 M139.2,49.7V46c0.1,0,0.1,0,0.2,0c0.1,0,0.1,0,0.2,0c0.1,0,0.1,0,0.2,0c0.3,0,0.5,0,0.7,0c0.2,0,0.3,0.1,0.5,0.1
		c0.1,0.1,0.3,0.1,0.4,0.2c0.1,0.1,0.3,0.2,0.3,0.4c0.1,0.2,0.2,0.3,0.2,0.5c0.1,0.2,0.1,0.4,0.1,0.7c0,0.3-0.1,0.7-0.2,0.9
		c-0.1,0.3-0.3,0.5-0.5,0.6c-0.1,0.1-0.2,0.1-0.3,0.2c-0.1,0-0.3,0.1-0.5,0.1c-0.2,0-0.4,0-0.7,0H139.2z M149,50.9l0.6,1.5
		c0.1,0.1,0.1,0.3,0.2,0.4c0,0.1,0.1,0.1,0.1,0.2c0,0,0,0.1,0,0.1s0,0.1,0,0.1c0,0.1,0,0.2-0.1,0.3c-0.1,0.1-0.1,0.1-0.3,0.1
		c-0.1,0-0.3,0-0.5,0h-0.1v0.3h3.2v-0.3H152c-0.1,0-0.3-0.1-0.4-0.1c-0.1,0-0.2-0.1-0.3-0.2c-0.1-0.1-0.2-0.2-0.3-0.4
		s-0.2-0.4-0.3-0.8l-2.7-6.4h-0.2l-2.3,5.6l-0.3,0.7c-0.1,0.3-0.2,0.5-0.3,0.7c-0.1,0.2-0.2,0.3-0.3,0.5c-0.1,0.1-0.2,0.2-0.3,0.3
		c-0.1,0.1-0.3,0.1-0.4,0.1l-0.1,0v0.3h2.4v-0.3H146c-0.1,0-0.3,0-0.4-0.1c-0.1-0.1-0.2-0.2-0.3-0.3c-0.1-0.1-0.1-0.2-0.1-0.4
		c0-0.1,0-0.1,0-0.2c0-0.1,0-0.2,0.1-0.3c0-0.1,0.1-0.2,0.1-0.4c0.1-0.2,0.1-0.4,0.3-0.6l0.2-0.5H149z M148.9,50.6H146l1.4-3.4
		L148.9,50.6z M160.6,54h0.3v-6.7c0-0.3,0-0.5,0.1-0.7c0.1-0.2,0.2-0.3,0.4-0.4c0.2-0.1,0.4-0.1,0.7-0.2h0.1v-0.3h-2.9V46h0.1
		c0.3,0,0.6,0.1,0.8,0.2c0.2,0.1,0.3,0.2,0.4,0.4c0.1,0.2,0.1,0.4,0.1,0.7v4.8l-4.8-6.3h-2.4V46h0.1c0.2,0,0.4,0,0.5,0
		c0.1,0,0.3,0.1,0.3,0.1c0.1,0.1,0.1,0.1,0.2,0.3c0.1,0.1,0.1,0.3,0.1,0.5c0,0.2,0,0.5,0,0.8V52c0,0.2,0,0.3,0,0.4
		c0,0.1,0,0.2,0,0.3c0,0.1,0,0.1,0,0.2c0,0.1,0,0.1-0.1,0.1c0,0.1-0.1,0.2-0.2,0.2c-0.1,0.1-0.2,0.1-0.4,0.2c-0.1,0-0.3,0.1-0.5,0.1
		h-0.1v0.3h3v-0.3h-0.1c-0.5,0-0.8-0.1-1-0.3s-0.3-0.4-0.3-0.7l0-0.5v-5.6L160.6,54z M163.9,46h0.2c0.2,0,0.4,0,0.5,0
		c0.1,0,0.3,0.1,0.3,0.1c0.1,0.1,0.1,0.1,0.2,0.3c0,0.1,0.1,0.3,0.1,0.5c0,0.2,0,0.5,0,0.8v4c0,0.3,0,0.6,0,0.8c0,0.2,0,0.4-0.1,0.5
		c-0.1,0.1-0.1,0.2-0.2,0.3c-0.1,0.1-0.2,0.1-0.3,0.1c-0.1,0-0.3,0-0.5,0h-0.2v0.3h3.7v-0.3h-0.2c-0.2,0-0.3,0-0.5,0
		c-0.1,0-0.2-0.1-0.3-0.1c-0.1-0.1-0.1-0.2-0.2-0.3c0-0.1-0.1-0.3-0.1-0.5s0-0.5,0-0.8v-4c0-0.3,0-0.6,0-0.8c0-0.2,0-0.4,0.1-0.5
		c0.1-0.1,0.1-0.2,0.2-0.3c0.1-0.1,0.2-0.1,0.3-0.1c0.1,0,0.3,0,0.5,0h0.2v-0.3h-3.7V46z M176.1,51.3c-0.1,0.5-0.3,1-0.5,1.3
		c-0.2,0.3-0.5,0.6-0.8,0.7c-0.3,0.1-0.7,0.2-1.1,0.2h-0.6c-0.2,0-0.4,0-0.6,0c-0.1,0-0.3-0.1-0.3-0.1c-0.1-0.1-0.1-0.2-0.2-0.3
		c-0.1-0.1-0.1-0.3-0.1-0.6c0-0.3,0-0.6,0-0.9v-1.9h0.9c0.2,0,0.4,0,0.6,0c0.1,0,0.3,0.1,0.3,0.2c0.1,0.1,0.1,0.2,0.2,0.4
		c0.1,0.1,0.1,0.4,0.1,0.6V51h0.3v-2.8H174v0.1c0,0.2,0,0.4-0.1,0.6c0,0.1-0.1,0.3-0.2,0.3s-0.2,0.1-0.4,0.2c-0.2,0-0.4,0-0.6,0
		h-0.9V46h1.1c0.4,0,0.7,0,1,0.1c0.3,0.1,0.5,0.1,0.7,0.3c0.2,0.1,0.3,0.3,0.4,0.5c0.1,0.2,0.2,0.5,0.3,0.9h0.3l-0.2-2h-5.8V46h0.1
		c0.2,0,0.4,0,0.5,0.1c0.1,0,0.2,0.1,0.3,0.2c0.1,0.1,0.1,0.3,0.1,0.5c0,0.2,0,0.5,0,0.9v4c0,0.3,0,0.6,0,0.8c0,0.2,0,0.4-0.1,0.5
		c-0.1,0.1-0.1,0.2-0.2,0.3c-0.1,0.1-0.2,0.1-0.3,0.1c-0.1,0-0.3,0-0.5,0h-0.2v0.3h6.7l0.2-2.5H176.1z M178.8,53.7h0.3
		c0.1-0.2,0.1-0.3,0.1-0.5c0.1-0.1,0.1-0.3,0.2-0.3c0.3,0.3,0.6,0.6,1,0.8s0.8,0.3,1.2,0.3c0.5,0,1-0.1,1.3-0.3
		c0.4-0.2,0.7-0.5,0.9-0.8c0.2-0.4,0.3-0.8,0.3-1.2c0-0.3-0.1-0.6-0.2-0.9c-0.1-0.3-0.3-0.5-0.5-0.7c-0.1-0.1-0.1-0.1-0.3-0.2
		c-0.1-0.1-0.2-0.1-0.3-0.2c-0.1-0.1-0.3-0.2-0.5-0.3c-0.2-0.1-0.5-0.2-0.8-0.4c-0.3-0.1-0.5-0.2-0.7-0.3c-0.2-0.1-0.3-0.2-0.4-0.3
		c-0.1-0.1-0.2-0.1-0.3-0.2c-0.2-0.2-0.3-0.3-0.4-0.5s-0.1-0.4-0.1-0.6c0-0.2,0.1-0.5,0.2-0.7c0.1-0.2,0.3-0.3,0.5-0.4
		c0.2-0.1,0.5-0.2,0.7-0.2c0.3,0,0.7,0.1,0.9,0.3c0.3,0.1,0.5,0.4,0.7,0.7c0.2,0.3,0.4,0.7,0.5,1h0.3v-2.1h-0.3
		c0,0.1-0.1,0.2-0.1,0.4c0,0.1-0.1,0.2-0.2,0.3c-0.2-0.2-0.4-0.4-0.6-0.5c-0.2-0.1-0.4-0.2-0.6-0.3c-0.2-0.1-0.4-0.1-0.7-0.1
		c-0.3,0-0.6,0.1-0.9,0.2c-0.3,0.1-0.5,0.2-0.7,0.4c-0.2,0.2-0.3,0.4-0.5,0.6c-0.1,0.3-0.2,0.5-0.2,0.8c0,0.2,0,0.4,0.1,0.6
		c0,0.2,0.1,0.3,0.2,0.5c0.1,0.1,0.2,0.3,0.3,0.4c0.1,0.2,0.3,0.3,0.6,0.5c0.3,0.2,0.6,0.3,1,0.5c0.3,0.1,0.5,0.2,0.7,0.3
		c0.2,0.1,0.3,0.1,0.4,0.2s0.2,0.1,0.3,0.2c0.1,0.1,0.1,0.1,0.2,0.2c0.2,0.1,0.3,0.3,0.5,0.5c0.1,0.2,0.1,0.4,0.1,0.7
		c0,0.3-0.1,0.6-0.2,0.8c-0.1,0.2-0.4,0.4-0.6,0.5c-0.3,0.1-0.6,0.2-0.9,0.2c-0.7,0-1.2-0.2-1.6-0.7s-0.7-1-0.9-1.9h-0.3V53.7z"/>
	<rect y="37.4" class="st0" width="210.1" height="0.9"/>
	<path class="st0" d="M39.7,28.3v1.4H29v-1.4l2.4,0.1c0.7,0,1-0.4,1-1.1V4.3l-11.7,26h-1.2L6.9,3.9v23.4c0,0.7,0.3,1.1,0.9,1.1
		l2.4-0.1v1.4H2.3v-1.4l1.9,0.1c0.7,0,1-0.4,1-1.1V2.2c0-0.2-0.1-0.3-0.5-0.3L2.7,2V0.5h7.6l11.4,23.8L32.4,0.5h7.1V2l-1.7-0.1h-0.1
		c-0.3,0-0.5,0.1-0.7,0.3s-0.3,0.4-0.3,0.7v24.5c0,0.7,0.3,1.1,1,1.1L39.7,28.3z M78.1,28.3v1.4h-13v-1.4l2.4,0.1
		c1,0.1,1.5-0.3,1.5-1.2c0-0.5-0.2-1.2-0.5-1.9L66,19.6H54.6l-2.3,5.5c-0.5,1-0.7,1.8-0.7,2.5c0,0.7,0.4,1,1.1,1l2.4-0.1v1.4h-8.5
		v-1.4l1.3,0.1h0.2c0.7,0,1.2-0.3,1.6-0.9c0.5-0.7,1-1.7,1.5-2.9L61.4,0h1.3L73,24.8c0.5,1.2,0.9,2.1,1.4,2.8c0.5,0.6,1,0.9,1.7,0.9
		h0.3L78.1,28.3z M55.2,18.2h10.2L60.3,5.8L55.2,18.2z M112.7,0.5V2l-1.9-0.1h-0.1c-0.5,0-0.8,0.3-0.8,1v27.2h-1.5L89.2,4v23.4
		c0,0.7,0.3,1.1,0.9,1.1l2.4-0.1v1.4h-7.9v-1.4l1.9,0.1c0.7,0,1-0.4,1-1.1V2.9c0-0.3-0.1-0.5-0.3-0.8c-0.2-0.2-0.4-0.3-0.7-0.3
		L84.7,2V0.5h7.6l15.9,21.7V2.8c0-0.7-0.3-1-0.9-1h-0.1L104.9,2V0.5H112.7z M122.5,15.3c0-4.8,1.3-8.6,3.9-11.3
		C129,1.4,132.7,0,137.3,0c1.2,0,2.2,0.1,3,0.3c0.8,0.2,1.8,0.5,2.9,0.9c0.8,0.3,1.5,0.5,2.2,0.7c0.6,0.2,1.3,0.3,2.1,0.3
		c-0.1,1-0.2,2.2-0.2,3.7c0,0.7,0,1.3,0.1,1.8c0,0.5,0.1,0.9,0.1,0.9h-1.2c-0.3-1.3-0.9-2.6-1.8-3.7c-0.9-1.1-2-2-3.3-2.6
		s-2.7-1-4.1-1c-2,0-3.6,0.6-5,1.8c-1.4,1.2-2.5,2.8-3.3,4.9s-1.1,4.6-1.1,7.4c0,2.6,0.4,5,1.2,7.1s1.9,3.7,3.4,4.8
		c1.5,1.2,3.2,1.7,5.1,1.7c2.3,0,4.3-0.7,6-2.1c1.7-1.4,2.8-3.1,3.3-5.3h1.4c-0.2,1.6-0.3,2.9-0.3,4.2c0,1,0.1,1.7,0.1,2.3h-0.3
		c-0.5,0-1,0.1-1.6,0.2c-0.6,0.1-1.1,0.3-1.5,0.4c-0.4,0.1-0.7,0.2-0.8,0.3c-1.2,0.4-2.4,0.7-3.4,1c-1,0.2-2,0.3-3.1,0.3
		c-2.9,0-5.5-0.6-7.7-1.8c-2.2-1.2-3.9-2.9-5-5.2C123.1,21,122.5,18.4,122.5,15.3L122.5,15.3z M157.9,28.3l1.9,0.1
		c0.6,0,0.9-0.4,0.9-1.1V2.9c0-0.7-0.3-1-0.9-1L157.9,2V0.5h10.8V2l-2.4-0.1h-0.1c-0.3,0-0.5,0.1-0.7,0.3c-0.1,0.2-0.2,0.5-0.2,0.7
		V14h14.4V2.9c0-0.7-0.3-1-0.9-1L176.5,2V0.5h10.7V2l-1.9-0.1h-0.1c-0.3,0-0.5,0.1-0.6,0.3c-0.1,0.2-0.2,0.5-0.2,0.7v24.5
		c0,0.7,0.3,1.1,0.9,1.1l1.9-0.1v1.4h-10.7v-1.4l2.4,0.1c0.6,0,0.9-0.4,0.9-1.1v-12h-14.4v12c0,0.7,0.3,1.1,1,1.1l2.4-0.1v1.4h-10.8
		V28.3z M197.5,28.3l1.9,0.1c0.6,0,0.9-0.4,0.9-1.1V2.9c0-0.3-0.1-0.5-0.2-0.8c-0.2-0.2-0.4-0.3-0.7-0.3L197.5,2V0.5h10.3V2
		l-1.9-0.1h-0.1c-0.3,0-0.5,0.1-0.6,0.3s-0.3,0.5-0.3,0.7v24.5c0,0.7,0.3,1.1,1,1.1l1.9-0.1v1.4h-10.3V28.3z"/>
</g>
</svg>
