<svg xmlns="http://www.w3.org/2000/svg" viewBox="0 0 1919.72 885.24"><title>Asset 2</title><g id="Layer_2" data-name="Layer 2"><g id="Layer_1-2" data-name="Layer 1"><path d="M274.87,591.44c-31.75,0-46.93,20.24-46.93,93.86,0,74.07,15.18,91.1,46.93,91.1s46.47-17,46.47-91.1c0-73.61-14.72-93.86-46.47-93.86Z" fill="#106330"/><path d="M482.82,594.2c-11.5,0-25.3,4.14-25.3,23.46v96.62c0,31.75,19.78,50.61,45.55,50.61,20.24,0,44.17-17,44.17-50.61V634.23s.46-40.49-36.35-40Z" fill="#106330"/><path d="M183.31,191.63v-144l-71.77,179h-4.6l-75-161.49v91.09s-.46,63.49,36.35,63.49H77v4.6c-11.5,0-24.84,4.6-24.84,23.92V404.65h9.66s71.31,0,80.51-53.83H147v54.29h23.92v4.14c-23.92,0-12,31.28-12,31.28l38.19,99.38,25.77-67.63s25.3-63-20.24-63H188.37v-4.6c11.5,0,23-9.66,23-28.06V248.22c0-16.56-11-23.92-23-23.92H164v-4.6c11,0,19.32-9.66,19.32-28.06Z" fill="#106330"/><path d="M973,217.93c3.54-.35,7.16-.53,10.89-.53,19.42,0,33.09,0,44.31,2.4-10.19-5.94-12.78-20.09-20.84-54.39-6.66-28.33-34-27.6-34-27.6H960.84v53.83c0,13.85,5,22.74,12.12,26.3Z" fill="#106330"/><path d="M931.4,594.2h-11.5V774.09h11.5c26.69,0,65.79-5.52,65.79-89.26S958.08,594.2,931.4,594.2Z" fill="#106330"/><path d="M1016.51,86.28c0-46.93-21.16-46.93-47.39-46.93h-8.28v93.86h8.28c26.22,0,47.39,0,47.39-46.93Z" fill="#106330"/><polygon points="1102.08 721.18 1163.73 721.18 1131.53 642.51 1102.08 721.18 1102.08 721.18" fill="#106330"/><path d="M752.61,594.2H736.78v-4.6c6.9-2.76,6.44-10.12,6.44-31.75V506.33H677.89v51.53c0,21.62-.92,29,6.44,31.75L789.41,723V657.69s.46-63.95-36.81-63.49Z" fill="#106330"/><path d="M59.55,597.42H49v86.49H59.55c14.26,0,35-6.44,35-46,0-40-22.54-40.49-35-40.49Z" fill="#106330"/><path d="M567.93,39.35H556V219.7h12c26.22,0,65.79-5.52,65.79-89.26,0-84.19-39.57-91.09-65.79-91.09Z" fill="#106330"/><path d="M49,685.3v88.79H59.55c23.46,0,45.55.46,45.55-44.63,0-42.79-27.61-44.17-45.55-44.17Z" fill="#106330"/><path d="M1855.23,591.44c-29,0-39.57,35.43-4.6,58.43l41.41,27.6c11.66,7.72,21,16.05,27.68,24.77v-57h-.08c-5.06-14.26-21.62-53.83-64.41-53.83Z" fill="#106330"/><path d="M27.34,156.21v-98C18.6,42.31,7.12,40.15,0,39.56V217.06c27.34-12,27.34-60.85,27.34-60.85Z" fill="#106330"/><path d="M13.08,374.75V248.22c0-12.12-5.47-19.54-13.08-22.47V403.51c8.13-3.37,13.08-14,13.08-28.76Z" fill="#106330"/><path d="M0,34.75H64.61l64.87,136.64L183.31,34.75h59.35v4.6c-11.5,0-20.7,7.36-20.7,23.92V191.63c0,18.4,11.5,28.06,23,28.06H273v4.6c-11.5,0-23,7.36-23,23.92V376.59c0,18.4,11.5,28.52,23,28.52h8.74v4.14c-12.42,0-29.9,6.9-54.75,64.41L180.55,594.2h-4.6L127.64,478.26,86.39,590c25.64,1.68,45.39,9.49,45.39,45.1,0,40-42.79,46.47-47.85,46.47,17,0,60.73,3.22,60.73,48.77,0,47.39-38.65,48.31-85.11,48.31H0V885.24H1919.72V761.89c-5.13,6-20.11,19.1-53.45,19.1-52.45,0-73.61-16.56-73.61-16.56V712.9h4.6c5.52,16.56,21.16,63.49,69,63.49,28.53,0,37.73-38.65,4.6-62.57l-41.41-26.22c-38.19-23.92-52.45-50.61-29.9-80.05,0,0,13.34-20.7,55.67-20.7,34.26,0,55.74,7.14,64.49,10.79V0H0Zm1109.91,0h66.25l108.12,133.88V103.3s.46-64-36.81-64v-4.6h81.43v4.6c-40.49,0-40,64-40,64v121h-14.26L1157.29,76.62v79.13s-.46,63.95,36.81,63.95v4.6h-81.89v-4.6c40.49,0,40.49-63.95,40.49-63.95V71.55l-10.58-12.88c-17-21.62-24.84-18.86-32.2-19.32v-4.6Zm-495,184.39h0c-11.42,4.11-23,12.52-23,29.08V376.59c0,18.4,11.5,28.06,23,28.06v4.6H601.52v49.69h-4.6c-2.3-48.31-59.81-49.69-59.81-49.69H532V561.54c0,18.4,12,28.06,23,28.06h36.81v4.6c-40.49-.46-40,40-40,40v80.05c0,57.51-42.79,66.71-66.25,66.71-36.81,0-66.71-24.38-66.71-68.55V617.67c0-16.56-9.66-23.46-21.62-23.46H312.89c35.43,14.92,54.91,50.85,54.91,91.1,0,53.83-33.59,95.7-92.94,95.7s-92.94-41.87-92.94-95.7c0-52.91,33.59-98.46,92.94-98.46a102.94,102.94,0,0,1,23.73,2.76h12.16c11.5,0,22.55-9.66,22.55-28.06V433.17c0-16.56-10.58-23.92-22.55-23.92v-4.14h82.47C329.13,251,325.93,246.38,325.93,246.38c-8.74-21.62-18.4-22.08-25.31-22.08v-4.6H330c-35.22-14-54.7-48.2-54.7-88.79,0-53.37,33.59-98.46,92.48-98.46,59.35,0,92.93,45.09,92.93,98.46,0,50.14-29.65,90.51-82.44,95.22-11.39,6.62-4.05,29.46-4.05,29.46l40.95,102.6,28.53-70.85s24.38-63-20.24-63v-4.6h73.61c11.5,0,20.24-14.26,20.24-32.2V72c0-16.56-8.28-32.67-20.24-32.67v-4.6h70.85c53.37,0,112.72,17,112.72,95.7,0,55.55-29.61,79.42-65.79,88.66v0ZM834,594.2h0c-40.49-.46-40,63.49-40,63.49v121H779.75L662.43,631v79.13s-.46,64,36.81,64v4.6H617.35v-4.6c40.95,0,40.49-64,40.49-64V626.41l-10.58-13.34c-17-21.62-24.84-18.4-31.75-18.86v-4.6h12.7c14.26-3.68,12-10.12,12-31.75V443.3c0-20.7.92-31.28-12-34v-4.14h15.18c40.49,0,40-64.41,40-64.41V257l-10.12-13.34c-17.48-21.62-25.3-18.4-32.2-19.32v-4.6h65.79L815.46,353.58V288.25s0-64-36.81-64H720.11v-4.6c11,0,10.7-14.26,10.7-32.2V72c0-16.56-3.68-32.67-15.64-32.67v-4.6H862.85V85.82h-4.6c-6-46.47-79.13-46.47-79.13-46.47h-9.66v87h9.66s40.95,0,43.71-28.06h4.6V159h-4.6c-2.76-28.06-43.71-28.06-43.71-28.06h-9.66V219.7h9.66s71.31,0,82.81-54.29h4.6V224.3h-6.44c-40.49,0-40,64-40,64v121H805.79L688,261.57V340.7s0,64,36.81,64v4.6H684.33c-7.36,2.76-6.44,13.34-6.44,34v57.51h65.33V443.3c0-20.7.92-31.28-6.44-34v-4.14h55.67v4.14c-12.42,2.76-12,13.34-12,34V557.86c0,21.62-1.84,28.06,12,31.75H834v4.6ZM931.4,778.69H860.54v-4.6c11.5,0,20.24-13.8,20.24-32.2V626.41c0-16.56-8.28-32.21-20.24-32.21v-4.6h17.52c-35.34-14-54.79-47.9-54.79-88.79,0-53.37,33.59-98.46,92.94-98.46s92.94,45.09,92.94,98.46c0,41.78-20.28,76.32-57.09,89.7,47.2,4.32,92.06,25.67,92.06,94.33,0,78.67-58.89,93.86-112.72,93.86Zm311.93,0H1166.5v-4.6c20.7,0,6.9-28.52,6.9-28.52l-8.28-19.78h-63.49s-17,50.61,25.76,48.31v4.6h-66.25v-4.6c6.9-.46,13.8,1.84,40-62.11l44.62-117.51a88.18,88.18,0,0,1-18.85,2c-36.81,0-66.71-24.84-66.71-68.55V433.17c0-16.56-9.66-23.92-21.62-23.92H1018a248.53,248.53,0,0,1-34.15,2.3c-58.43,0-94.32-43.71-94.32-97.08,0-40.8,21-75.88,57-90.18H902.41v-4.6c11.5,0,19.32-9.66,19.32-28.06V63.27c0-16.56-7.36-23.92-19.32-23.92v-4.6h66.71c53.37,0,91.09,6.44,91.09,51.53,0,32.67-20.24,45.09-52.45,48.77,17.48-1.84,39.11,9.66,52.45,58.43,5.06,20.24,24.39,25.76,31.29,26.22v4.6h-24.84c-12.18-.12-21.1-.18-27.87-1.17a54,54,0,0,1,13.61,8.53l-1.84,46h-9.2c-7.82-41.87-25.76-55.67-57.51-55.67-30.83,0-45.55,18.4-45.55,92.48S953.48,407,983.84,407c31.29,0,35.43-4.6,35.43-30.36,0-36.81-7.36-38.19-22.54-38.19v-4.6h75.91v4.6c-15,0-18.77,11.32-18.86,66.71h70.38v4.14c-11.5,0-25.3,4.6-25.3,23.92v96.62c0,31.75,19.78,50.61,45.55,50.61,20.24,0,44.17-17,44.17-50.61V449.74s.46-40.49-36.35-40.49v-4.14h81v4.14c-40.49,0-40,40.49-40,40.49v80.05c0,39.08-19.76,55.84-39.79,62.58,64.64,155.05,67.4,161.94,67.4,161.94,8.74,21.62,15.18,19.32,22.54,19.78v4.6Zm211.64,0h-24.84c-47.85,0-40.49,0-59.35-58.43-9.2-28.06-33.59-28.06-33.59-28.06H1324.3V746c0,18.4,8.74,28.06,19.78,28.06v4.6h-78.21v-4.6c11.5,0,19.32-9.66,19.32-28.06V618.13c0-17-7.36-23.92-19.32-23.92v-4.6h36.81c11.5,0,23-9.66,23-28.06V409.25h-5.06s-57,1.38-59.35,49.69h-4.6V405.11H1433.8v53.83h-4.6c-2.3-48.31-59.35-49.69-59.35-49.69h-5.06V561.54c0,17.94,9.58,30.41,23,33.09v.14c22.38,6.14,35.89,19.11,35.89,45.9,0,33.13-20.24,45.09-52.45,48.77,17.48-1.84,39.11,10.12,52.45,58.43,5.52,20.24,24.38,25.76,31.29,26.22v4.6ZM1566.3,594.2h0c-11.5,0-22.54,6.9-22.54,23.92V746c0,18.4,11.5,28.06,22.54,28.06v4.6h-84.65v-4.6c11.5,0,23-9.66,23-28.06V618.13c0-17-11-23.92-23-23.92v-4.6h84.65v4.6ZM1749,778.69H1597.59v-4.6c11.5,0,15.64-13.8,15.64-32.2V626.41c0-16.56-3.68-32.21-15.64-32.21v-4.6h147.68v51.07h-4.6c-6-46.47-78.67-46.47-78.67-46.47h-9.66V680.7H1662s40.49,0,43.25-27.61h4.6v60.27h-4.6C1702.48,685.3,1662,685.3,1662,685.3h-9.66v88.79H1662s71.31,0,82.35-53.83h4.6v58.43Z" fill="#106330"/><path d="M9.86,741.89V626.41c0-13.52-2.46-28.25-9.86-33.22V774.74c7.14-4.56,9.86-17.94,9.86-32.85Z" fill="#106330"/><path d="M78.38,589.7,12.62,431.33C8.53,420.42,4.21,414.91,0,412.12V589.6H59.55c6.4,0,12.73,0,18.83.1Z" fill="#106330"/><path d="M414.27,130.9C414.27,57.29,399.55,37,367.8,37s-46.47,20.24-46.47,93.86c0,74.07,14.72,91.1,46.47,91.1s46.47-17,46.47-91.1Z" fill="#106330"/><path d="M932.9,589.62c20.1-6.61,29.32-29.28,29.32-88.81,0-73.61-14.26-93.86-46-93.86-32.21,0-46.93,20.24-46.93,93.86,0,59.49,9.51,82.17,29.93,88.79H931.4l1.51,0Z" fill="#106330"/><path d="M1332.58,597.42h-8.28v93.85h8.28c26.22,0,47.39-.46,47.39-47.39,0-46.47-21.16-46.47-47.39-46.47Z" fill="#106330"/><path d="M85.31,409.25H73.81c-23.92,0-12,31.28-12,31.28L100.5,539l24.84-67.63-15.18-40c-8.28-22.08-17.94-22.08-24.84-22.08Z" fill="#106330"/><path d="M530.21,224.3H499.84c-12.42,0-24.84,0-52,64.41L399.55,409.25h-4.14c-11.5,0-23,7.36-23,23.92V561.54c0,18.4,11.5,28.06,23,28.06h75c11,0,23-9.66,23-28.06V409.25h-5.06s-57,1.38-59.35,49.69h-4.6V405.11H530.21v-.46c11.5,0,22.54-9.66,22.54-28.06V248.22c0-16.56-11-23.92-22.54-23.92Z" fill="#106330"/></g></g></svg>